<svg width="42" height="44" viewBox="0 0 42 44" fill="none" xmlns="http://www.w3.org/2000/svg">
<circle cx="21" cy="21" r="21" fill="#0F0049"/>
<circle cx="21" cy="13.7308" r="5.46154" stroke="#FCFCFC" stroke-width="2"/>
<path fill-rule="evenodd" clip-rule="evenodd" d="M30.271 33.923C29.8371 33.923 29.5 33.5492 29.5 33.1154C29.5 28.4209 25.6944 24.6154 21 24.6154C16.3056 24.6154 12.5 28.4209 12.5 33.1154C12.5 33.5492 12.1629 33.923 11.729 33.923H11.3391C10.883 33.923 10.5 33.5714 10.5 33.1154C10.5 27.3164 15.201 22.6154 21 22.6154C26.799 22.6154 31.5 27.3164 31.5 33.1154C31.5 33.5714 31.117 33.923 30.6609 33.923H30.271ZM21.0128 43.6153H20.9872C20.9915 43.6154 20.9957 43.6154 21 43.6154C21.0043 43.6154 21.0085 43.6154 21.0128 43.6153Z" fill="#FCFCFC"/>
</svg>
