<svg width="86" height="21" viewBox="0 0 86 21" fill="none" xmlns="http://www.w3.org/2000/svg">
<path d="M3.56189 17C3.38189 17 3.23789 16.952 3.12989 16.856C3.02189 16.76 2.95589 16.628 2.93189 16.46L0.789891 4.922L0.771891 4.778C0.771891 4.67 0.807891 4.58 0.879891 4.508C0.963891 4.436 1.05389 4.4 1.14989 4.4H2.73389C3.03389 4.4 3.20189 4.52 3.23789 4.76L4.73189 12.914L6.35189 7.64C6.47189 7.34 6.66989 7.19 6.94589 7.19H7.91789C8.21789 7.19 8.40989 7.34 8.49389 7.64L10.1319 12.896L11.6259 4.76C11.6499 4.628 11.6979 4.538 11.7699 4.49C11.8539 4.43 11.9739 4.4 12.1299 4.4H13.7139C13.8099 4.4 13.8939 4.436 13.9659 4.508C14.0379 4.58 14.0739 4.67 14.0739 4.778C14.0739 4.838 14.0679 4.886 14.0559 4.922L11.9139 16.46C11.8539 16.82 11.6439 17 11.2839 17H10.0779C9.90989 17 9.77189 16.958 9.66389 16.874C9.55589 16.79 9.48389 16.682 9.44789 16.55L7.43189 10.538L5.41589 16.55C5.29589 16.85 5.07989 17 4.76789 17H3.56189ZM18.3025 17.18C17.6905 17.18 17.1265 17.06 16.6105 16.82C16.1065 16.568 15.7045 16.232 15.4045 15.812C15.1165 15.392 14.9725 14.93 14.9725 14.426C14.9725 13.61 15.3025 12.95 15.9625 12.446C16.6225 11.942 17.5285 11.6 18.6805 11.42L21.1465 11.06V10.682C21.1465 10.154 21.0145 9.758 20.7505 9.494C20.4865 9.23 20.0605 9.098 19.4725 9.098C19.0765 9.098 18.7525 9.176 18.5005 9.332C18.2605 9.476 18.0685 9.62 17.9245 9.764C17.7805 9.92 17.6845 10.022 17.6365 10.07C17.5885 10.214 17.4985 10.286 17.3665 10.286H15.9805C15.8725 10.286 15.7765 10.25 15.6925 10.178C15.6205 10.106 15.5845 10.01 15.5845 9.89C15.5965 9.59 15.7405 9.248 16.0165 8.864C16.3045 8.48 16.7425 8.15 17.3305 7.874C17.9185 7.598 18.6385 7.46 19.4905 7.46C20.9065 7.46 21.9385 7.778 22.5865 8.414C23.2345 9.05 23.5585 9.884 23.5585 10.916V16.568C23.5585 16.688 23.5165 16.79 23.4325 16.874C23.3605 16.958 23.2585 17 23.1265 17H21.6685C21.5485 17 21.4465 16.958 21.3625 16.874C21.2785 16.79 21.2365 16.688 21.2365 16.568V15.866C20.9725 16.25 20.5945 16.568 20.1025 16.82C19.6225 17.06 19.0225 17.18 18.3025 17.18ZM18.9145 15.47C19.5745 15.47 20.1145 15.254 20.5345 14.822C20.9545 14.39 21.1645 13.76 21.1645 12.932V12.554L19.3645 12.842C18.6685 12.95 18.1405 13.124 17.7805 13.364C17.4325 13.604 17.2585 13.898 17.2585 14.246C17.2585 14.63 17.4205 14.93 17.7445 15.146C18.0685 15.362 18.4585 15.47 18.9145 15.47ZM30.0098 17C28.9178 17 28.0958 16.718 27.5438 16.154C27.0038 15.578 26.7338 14.738 26.7338 13.634V9.548H25.3118C25.1918 9.548 25.0898 9.506 25.0058 9.422C24.9218 9.326 24.8798 9.218 24.8798 9.098V8.072C24.8798 7.952 24.9218 7.85 25.0058 7.766C25.0898 7.682 25.1918 7.64 25.3118 7.64H26.7338V4.652C26.7338 4.52 26.7758 4.418 26.8598 4.346C26.9438 4.262 27.0458 4.22 27.1658 4.22H28.6238C28.7558 4.22 28.8578 4.262 28.9298 4.346C29.0138 4.418 29.0558 4.52 29.0558 4.652V7.64H31.3058C31.4378 7.64 31.5398 7.682 31.6118 7.766C31.6958 7.838 31.7378 7.94 31.7378 8.072V9.098C31.7378 9.23 31.6958 9.338 31.6118 9.422C31.5278 9.506 31.4258 9.548 31.3058 9.548H29.0558V13.454C29.0558 13.97 29.1458 14.36 29.3258 14.624C29.5058 14.888 29.8058 15.02 30.2258 15.02H31.4678C31.5878 15.02 31.6898 15.062 31.7738 15.146C31.8578 15.23 31.8998 15.332 31.8998 15.452V16.568C31.8998 16.688 31.8578 16.79 31.7738 16.874C31.7018 16.958 31.5998 17 31.4678 17H30.0098ZM37.5466 17.18C36.2266 17.18 35.1706 16.814 34.3786 16.082C33.5986 15.35 33.1846 14.336 33.1366 13.04L33.1186 12.32L33.1366 11.6C33.1846 10.304 33.5986 9.29 34.3786 8.558C35.1706 7.826 36.2266 7.46 37.5466 7.46C38.4826 7.46 39.2746 7.628 39.9226 7.964C40.5826 8.3 41.0686 8.714 41.3806 9.206C41.7046 9.686 41.8786 10.142 41.9026 10.574C41.9146 10.694 41.8726 10.796 41.7766 10.88C41.6926 10.964 41.5906 11.006 41.4706 11.006H39.8866C39.7666 11.006 39.6706 10.982 39.5986 10.934C39.5386 10.874 39.4786 10.778 39.4186 10.646C39.2386 10.178 38.9986 9.842 38.6986 9.638C38.4106 9.434 38.0386 9.332 37.5826 9.332C36.9706 9.332 36.4906 9.53 36.1426 9.926C35.7946 10.31 35.6086 10.898 35.5846 11.69L35.5666 12.356L35.5846 12.95C35.6326 14.522 36.2986 15.308 37.5826 15.308C38.0506 15.308 38.4286 15.206 38.7166 15.002C39.0046 14.798 39.2386 14.462 39.4186 13.994C39.4786 13.862 39.5386 13.772 39.5986 13.724C39.6706 13.664 39.7666 13.634 39.8866 13.634H41.4706C41.5906 13.634 41.6926 13.676 41.7766 13.76C41.8726 13.844 41.9146 13.946 41.9026 14.066C41.8786 14.486 41.7106 14.936 41.3986 15.416C41.0866 15.896 40.6066 16.31 39.9586 16.658C39.3106 17.006 38.5066 17.18 37.5466 17.18ZM44.2298 17C44.1098 17 44.0078 16.958 43.9238 16.874C43.8398 16.79 43.7978 16.688 43.7978 16.568V4.652C43.7978 4.52 43.8398 4.418 43.9238 4.346C44.0078 4.262 44.1098 4.22 44.2298 4.22H45.8318C45.9638 4.22 46.0658 4.262 46.1378 4.346C46.2218 4.418 46.2638 4.52 46.2638 4.652V8.756C46.9838 7.892 47.9558 7.46 49.1798 7.46C50.2838 7.46 51.1658 7.826 51.8258 8.558C52.4858 9.278 52.8158 10.262 52.8158 11.51V16.568C52.8158 16.688 52.7738 16.79 52.6898 16.874C52.6178 16.958 52.5158 17 52.3838 17H50.7638C50.6438 17 50.5418 16.958 50.4578 16.874C50.3738 16.79 50.3318 16.688 50.3318 16.568V11.618C50.3318 10.91 50.1578 10.364 49.8098 9.98C49.4738 9.584 48.9818 9.386 48.3338 9.386C47.6978 9.386 47.1938 9.584 46.8218 9.98C46.4498 10.376 46.2638 10.922 46.2638 11.618V16.568C46.2638 16.688 46.2218 16.79 46.1378 16.874C46.0658 16.958 45.9638 17 45.8318 17H44.2298Z" fill="#FCFCFC"/>
<path d="M85.601 11.101C85.933 10.7691 85.933 10.2309 85.601 9.89896L80.1917 4.48959C79.8597 4.15765 79.3215 4.15765 78.9896 4.48959C78.6576 4.82154 78.6576 5.35973 78.9896 5.69168L83.7979 10.5L78.9896 15.3083C78.6576 15.6403 78.6576 16.1785 78.9896 16.5104C79.3215 16.8424 79.8597 16.8424 80.1917 16.5104L85.601 11.101ZM64 11.35L85 11.35L85 9.65L64 9.65L64 11.35Z" fill="#FCFCFC"/>
</svg>
